<svg width="79" height="24" viewBox="0 0 79 24" fill="none" xmlns="http://www.w3.org/2000/svg">
<path d="M21.7685 12.2089C21.9351 12.7086 22.0376 13.2168 22.076 13.7356C22.1315 14.2545 22.1593 14.8502 22.1593 15.5228V23.7095H17.9165V15.9563C17.9165 15.1492 17.8418 14.5534 17.6923 14.1691C17.5428 13.7655 17.2823 13.4495 16.9108 13.2189C16.5563 12.9883 16.1207 12.873 15.5997 12.873C14.7627 12.873 14.0559 13.1612 13.4794 13.7378C12.9029 14.2951 12.6146 15.0061 12.6146 15.8709V23.7116H8.37183V9.44158H12.6146V13.8509C12.9306 12.4481 13.5456 11.3142 14.4574 10.4494C15.3691 9.58465 16.4667 9.15332 17.75 9.15332C18.7728 9.15332 19.6205 9.43304 20.2888 9.98821C20.9785 10.5477 21.4696 11.2865 21.7685 12.2089Z" fill="black"/>
<path d="M31.3363 24C29.8843 24 28.5647 23.6925 27.3733 23.0776C26.201 22.4434 25.2807 21.5701 24.6102 20.4555C23.9397 19.3216 23.6045 18.0341 23.6045 16.5927C23.6045 15.1322 23.9397 13.8446 24.6102 12.73C25.2807 11.5962 26.201 10.7229 27.3733 10.1079C28.5647 9.47374 29.8843 9.15771 31.3363 9.15771C32.7883 9.15771 34.0994 9.47374 35.2716 10.1079C36.4631 10.7229 37.392 11.5962 38.0624 12.73C38.7329 13.8446 39.066 15.1322 39.066 16.5927C39.066 18.0341 38.7308 19.3216 38.0624 20.4555C37.392 21.5701 36.4631 22.4434 35.2716 23.0776C34.0994 23.6925 32.7883 24 31.3363 24ZM31.3363 19.9643C32.2844 19.9643 33.0574 19.6569 33.6531 19.0419C34.2488 18.4077 34.5456 17.5814 34.5456 16.5629C34.5456 15.5443 34.2382 14.7287 33.6253 14.1137C33.0296 13.4987 32.2673 13.1913 31.3363 13.1913C30.3883 13.1913 29.6068 13.4987 28.9918 14.1137C28.3961 14.7287 28.0992 15.5443 28.0992 16.5629C28.0992 17.5814 28.3961 18.4077 28.9918 19.0419C29.6068 19.6569 30.3883 19.9643 31.3363 19.9643Z" fill="black"/>
<path d="M44.7509 13.4771V17.3099C44.7509 18.0594 44.9367 18.6444 45.3082 19.0672C45.6798 19.4708 46.267 19.6715 47.0677 19.6715H49.1603V23.7072H46.3417C45.2634 23.7072 44.2769 23.4958 43.3843 23.073C42.5089 22.631 41.8128 22.0075 41.2918 21.2004C40.7708 20.374 40.5103 19.4131 40.5103 18.3177V4.51318H44.753V9.4414H49.1624V13.4771H44.7509Z" fill="black"/>
<path d="M57.6808 23.9998C56.2673 23.9998 54.984 23.703 53.8288 23.1073C52.6757 22.5116 51.764 21.6574 51.0935 20.5428C50.4422 19.409 50.1177 18.0937 50.1177 16.5947C50.1177 15.0765 50.4529 13.7612 51.1234 12.6466C51.7939 11.5127 52.7056 10.648 53.8587 10.0522C55.0309 9.45647 56.3335 9.15967 57.7662 9.15967C59.31 9.15967 60.8261 9.45647 62.3165 10.0522V14.2032C60.8645 13.5306 59.4595 13.1953 58.1015 13.1953C57.0787 13.1953 56.2416 13.4943 55.5904 14.0879C54.9391 14.6644 54.6146 15.4908 54.6146 16.5669C54.6146 17.6431 54.9391 18.478 55.5904 19.0738C56.2416 19.6695 57.0787 19.9663 58.1015 19.9663C59.6261 19.9663 61.0417 19.6012 62.3443 18.8709V23.0219C60.8346 23.6731 59.2801 23.9998 57.6808 23.9998Z" fill="black"/>
<path d="M77.6118 12.2086C77.7784 12.7082 77.8809 13.2164 77.9193 13.7353C77.9748 14.2541 78.0026 14.8499 78.0026 15.5225V23.7092H73.7598V15.956C73.7598 15.1488 73.685 14.5531 73.5356 14.1687C73.3861 13.7652 73.1256 13.4492 72.7541 13.2185C72.3996 12.9879 71.964 12.8726 71.443 12.8726C70.606 12.8726 69.8992 13.1609 69.3227 13.7374C68.7461 14.2947 68.4579 15.0058 68.4579 15.8706V23.7113H64.2151V3.18701H68.4579V13.8527C68.7739 12.4498 69.3889 11.316 70.3006 10.4512C71.2124 9.58643 72.3099 9.15511 73.5932 9.15511C74.616 9.15511 75.4637 9.43483 76.1321 9.99C76.8196 10.5473 77.3129 11.2861 77.6118 12.2086Z" fill="black"/>
<path d="M4.43808 0.305912C4.49967 -0.101971 5.08764 -0.101971 5.14924 0.305912L5.27878 1.16368C5.56736 3.07451 6.96175 4.63221 8.82909 5.1298L9.32029 5.26069C9.67632 5.35556 9.67632 5.8608 9.32029 5.95567L8.82908 6.08656C6.96175 6.58415 5.56736 8.14185 5.27878 10.0527L5.14924 10.9104C5.08764 11.3183 4.49967 11.3183 4.43808 10.9104L4.30853 10.0527C4.01996 8.14185 2.62556 6.58415 0.758228 6.08656L0.267018 5.95567C-0.0890058 5.8608 -0.0890061 5.35556 0.267018 5.26069L0.758227 5.1298C2.62556 4.63221 4.01996 3.07451 4.30853 1.16368L4.43808 0.305912Z" fill="black"/>
</svg>